<svg width="101" height="26" viewBox="0 0 101 26" fill="none" xmlns="http://www.w3.org/2000/svg">
<path d="M30.1361 9.3363C30.6161 9.3363 31.0241 9.4043 31.3601 9.5403C31.6961 9.6763 32.0241 9.8683 32.3441 10.1163C32.4321 10.1883 32.5081 10.2243 32.5721 10.2243C32.7321 10.2243 32.8361 9.9843 32.8841 9.5043H33.1601C33.1281 10.0243 33.1121 10.9443 33.1121 12.2643H32.8361C32.7481 11.7443 32.6681 11.3723 32.5961 11.1483C32.5241 10.9163 32.4041 10.6963 32.2361 10.4883C31.9961 10.1763 31.6881 9.9443 31.3121 9.7923C30.9441 9.6323 30.5441 9.5523 30.1121 9.5523C29.5921 9.5523 29.1361 9.7243 28.7441 10.0683C28.3601 10.4123 28.0601 10.9043 27.8441 11.5443C27.6281 12.1763 27.5201 12.9203 27.5201 13.7763C27.5201 14.6483 27.6361 15.3963 27.8681 16.0203C28.1001 16.6443 28.4201 17.1203 28.8281 17.4483C29.2441 17.7683 29.7121 17.9283 30.2321 17.9283C30.6321 17.9283 31.0201 17.8523 31.3961 17.7003C31.7721 17.5483 32.0681 17.3203 32.2841 17.0163C32.4441 16.7923 32.5601 16.5523 32.6321 16.2963C32.7041 16.0403 32.7721 15.6483 32.8361 15.1203H33.1121C33.1121 16.4963 33.1281 17.4563 33.1601 18.0003H32.8841C32.8601 17.7443 32.8241 17.5643 32.7761 17.4603C32.7361 17.3483 32.6761 17.2923 32.5961 17.2923C32.5321 17.2923 32.4481 17.3243 32.3441 17.3883C31.9841 17.6443 31.6401 17.8403 31.3121 17.9763C30.9841 18.1043 30.5881 18.1683 30.1241 18.1683C29.3641 18.1683 28.6961 17.9963 28.1201 17.6523C27.5521 17.3083 27.1081 16.8123 26.7881 16.1643C26.4761 15.5083 26.3201 14.7283 26.3201 13.8243C26.3201 12.9443 26.4801 12.1643 26.8001 11.4843C27.1281 10.8043 27.5801 10.2763 28.1561 9.9003C28.7401 9.5243 29.4001 9.3363 30.1361 9.3363Z" fill="#555248"/>
<path d="M40.0778 9.3363C40.8378 9.3363 41.5018 9.5083 42.0698 9.8523C42.6458 10.1963 43.0898 10.6963 43.4018 11.3523C43.7218 12.0003 43.8818 12.7763 43.8818 13.6803C43.8818 14.5603 43.7178 15.3403 43.3898 16.0203C43.0698 16.7003 42.6178 17.2283 42.0338 17.6043C41.4578 17.9803 40.8018 18.1683 40.0658 18.1683C39.3058 18.1683 38.6378 17.9963 38.0618 17.6523C37.4938 17.3083 37.0498 16.8123 36.7298 16.1643C36.4178 15.5083 36.2618 14.7283 36.2618 13.8243C36.2618 12.9443 36.4218 12.1643 36.7418 11.4843C37.0698 10.8043 37.5218 10.2763 38.0978 9.9003C38.6818 9.5243 39.3418 9.3363 40.0778 9.3363ZM40.0298 9.5523C39.5178 9.5523 39.0658 9.7323 38.6738 10.0923C38.2898 10.4443 37.9898 10.9403 37.7738 11.5803C37.5658 12.2203 37.4618 12.9523 37.4618 13.7763C37.4618 14.6083 37.5778 15.3403 37.8098 15.9723C38.0498 16.6043 38.3698 17.0923 38.7698 17.4363C39.1698 17.7803 39.6178 17.9523 40.1138 17.9523C40.6258 17.9523 41.0738 17.7763 41.4578 17.4243C41.8498 17.0643 42.1498 16.5643 42.3578 15.9243C42.5738 15.2843 42.6818 14.5523 42.6818 13.7283C42.6818 12.8963 42.5618 12.1643 42.3218 11.5323C42.0898 10.9003 41.7738 10.4123 41.3738 10.0683C40.9738 9.7243 40.5258 9.5523 40.0298 9.5523Z" fill="#555248"/>
<path d="M54.1466 9.7443C53.8666 9.7603 53.6586 9.8043 53.5226 9.8763C53.3866 9.9403 53.2946 10.0523 53.2466 10.2123C53.1986 10.3643 53.1746 10.5923 53.1746 10.8963V18.0603H52.8986L47.8586 10.2723V16.6083C47.8586 16.9203 47.8826 17.1523 47.9306 17.3043C47.9866 17.4563 48.0906 17.5683 48.2426 17.6403C48.3946 17.7043 48.6306 17.7443 48.9506 17.7603V18.0003C48.6626 17.9763 48.2546 17.9643 47.7266 17.9643C47.2466 17.9643 46.8746 17.9763 46.6106 18.0003V17.7603C46.8906 17.7443 47.0986 17.7043 47.2346 17.6403C47.3706 17.5683 47.4626 17.4563 47.5106 17.3043C47.5586 17.1443 47.5826 16.9123 47.5826 16.6083V10.7763C47.5826 10.4723 47.5586 10.2523 47.5106 10.1163C47.4626 9.9803 47.3706 9.8883 47.2346 9.8403C47.1066 9.7923 46.8986 9.7603 46.6106 9.7443V9.5043C46.8746 9.5283 47.2466 9.5403 47.7266 9.5403C48.0866 9.5403 48.3986 9.5283 48.6626 9.5043L52.8986 16.0323V10.8963C52.8986 10.5843 52.8706 10.3523 52.8146 10.2003C52.7666 10.0483 52.6666 9.9403 52.5146 9.8763C52.3626 9.8043 52.1266 9.7603 51.8066 9.7443V9.5043C52.0946 9.5283 52.5026 9.5403 53.0306 9.5403C53.5106 9.5403 53.8826 9.5283 54.1466 9.5043V9.7443Z" fill="#555248"/>
<path d="M65.3332 18.3483C65.1572 18.9563 64.9052 19.4123 64.5772 19.7163C64.1852 20.0763 63.6452 20.2563 62.9572 20.2563C62.5892 20.2563 62.2292 20.2003 61.8772 20.0883C61.5252 19.9763 61.0812 19.8003 60.5452 19.5603C59.9532 19.3043 59.4692 19.1123 59.0932 18.9843L58.8052 18.9003C58.4612 19.0203 58.1292 19.0803 57.8092 19.0803C57.4412 19.0803 57.2572 19.0003 57.2572 18.8403C57.2572 18.6723 57.4732 18.5883 57.9052 18.5883C58.1852 18.5883 58.4852 18.6203 58.8052 18.6843C59.0612 18.6123 59.3572 18.5003 59.6932 18.3483C59.9012 18.2523 60.0572 18.1843 60.1612 18.1443C59.4812 18.0803 58.8892 17.8683 58.3852 17.5083C57.8892 17.1483 57.5012 16.6563 57.2212 16.0323C56.9492 15.4003 56.8132 14.6643 56.8132 13.8243C56.8132 12.9443 56.9732 12.1643 57.2932 11.4843C57.6212 10.8043 58.0732 10.2763 58.6492 9.9003C59.2332 9.5243 59.8932 9.3363 60.6292 9.3363C61.3892 9.3363 62.0532 9.5083 62.6212 9.8523C63.1972 10.1963 63.6412 10.6963 63.9532 11.3523C64.2732 12.0003 64.4332 12.7763 64.4332 13.6803C64.4332 14.5123 64.2892 15.2563 64.0012 15.9123C63.7132 16.5603 63.3092 17.0803 62.7892 17.4723C62.2692 17.8563 61.6732 18.0803 61.0012 18.1443V18.1563C60.8092 18.1803 60.6412 18.2123 60.4972 18.2523C60.3612 18.3003 60.1772 18.3723 59.9452 18.4683C59.6572 18.5963 59.4172 18.6883 59.2252 18.7443C60.1132 18.9203 60.8652 19.0603 61.4812 19.1643C62.1052 19.2683 62.6212 19.3203 63.0292 19.3203C63.5972 19.3203 64.0452 19.2363 64.3732 19.0683C64.7092 18.9083 64.9692 18.6443 65.1532 18.2763L65.3332 18.3483ZM58.0132 13.7763C58.0132 14.6083 58.1292 15.3403 58.3612 15.9723C58.6012 16.6043 58.9212 17.0923 59.3212 17.4363C59.7212 17.7803 60.1692 17.9523 60.6652 17.9523C61.1772 17.9523 61.6252 17.7763 62.0092 17.4243C62.4012 17.0643 62.7012 16.5643 62.9092 15.9243C63.1252 15.2843 63.2332 14.5523 63.2332 13.7283C63.2332 12.8963 63.1132 12.1643 62.8732 11.5323C62.6412 10.9003 62.3252 10.4123 61.9252 10.0683C61.5252 9.7243 61.0772 9.5523 60.5812 9.5523C60.0692 9.5523 59.6172 9.7323 59.2252 10.0923C58.8412 10.4443 58.5412 10.9403 58.3252 11.5803C58.1172 12.2203 58.0132 12.9523 58.0132 13.7763Z" fill="#555248"/>
<path d="M74.5414 9.7443C74.2614 9.7603 74.0534 9.8043 73.9174 9.8763C73.7814 9.9403 73.6894 10.0523 73.6414 10.2123C73.5934 10.3643 73.5694 10.5923 73.5694 10.8963V14.5083C73.5694 15.0843 73.5294 15.5803 73.4494 15.9963C73.3774 16.4043 73.2534 16.7563 73.0774 17.0523C72.8774 17.3963 72.5814 17.6683 72.1894 17.8683C71.8054 18.0683 71.3694 18.1683 70.8814 18.1683C70.0014 18.1683 69.3294 17.9523 68.8654 17.5203C68.5134 17.1923 68.2774 16.8203 68.1574 16.4043C68.0374 15.9883 67.9774 15.3683 67.9774 14.5443V10.7763C67.9774 10.4723 67.9534 10.2523 67.9054 10.1163C67.8574 9.9803 67.7654 9.8883 67.6294 9.8403C67.5014 9.7923 67.2934 9.7603 67.0054 9.7443V9.5043C67.3414 9.5283 67.8534 9.5403 68.5414 9.5403C69.1894 9.5403 69.6974 9.5283 70.0654 9.5043V9.7443C69.7774 9.7603 69.5654 9.7923 69.4294 9.8403C69.3014 9.8883 69.2134 9.9803 69.1654 10.1163C69.1174 10.2523 69.0934 10.4723 69.0934 10.7763V14.7483C69.0934 15.3883 69.1374 15.9203 69.2254 16.3443C69.3134 16.7683 69.4934 17.1083 69.7654 17.3643C70.0454 17.6203 70.4534 17.7483 70.9894 17.7483C71.8374 17.7483 72.4334 17.4763 72.7774 16.9323C73.1214 16.3883 73.2934 15.6243 73.2934 14.6403V10.8963C73.2934 10.4643 73.2134 10.1683 73.0534 10.0083C72.9014 9.8483 72.6174 9.7603 72.2014 9.7443V9.5043C72.4894 9.5283 72.8974 9.5403 73.4254 9.5403C73.9054 9.5403 74.2774 9.5283 74.5414 9.5043V9.7443Z" fill="#555248"/>
<path d="M83.1891 16.4643C83.1891 16.9203 83.2171 17.4323 83.2731 18.0003C82.7291 17.9763 81.8131 17.9643 80.5251 17.9643C78.9891 17.9643 77.8291 17.9763 77.0451 18.0003V17.7603C77.3331 17.7443 77.5411 17.7123 77.6691 17.6643C77.8051 17.6163 77.8971 17.5243 77.9451 17.3883C77.9931 17.2523 78.0171 17.0323 78.0171 16.7283V10.7763C78.0171 10.4723 77.9931 10.2523 77.9451 10.1163C77.8971 9.9803 77.8051 9.8883 77.6691 9.8403C77.5411 9.7923 77.3331 9.7603 77.0451 9.7443V9.5043C77.8291 9.5283 78.9891 9.5403 80.5251 9.5403C81.7011 9.5403 82.5371 9.5283 83.0331 9.5043C82.9771 10.0323 82.9491 10.5043 82.9491 10.9203C82.9491 11.2323 82.9611 11.4803 82.9851 11.6643H82.7091C82.6531 11.1443 82.5811 10.7603 82.4931 10.5123C82.4051 10.2563 82.2571 10.0723 82.0491 9.9603C81.8411 9.8403 81.5251 9.7803 81.1011 9.7803H80.1051C79.8171 9.7803 79.6051 9.8043 79.4691 9.8523C79.3411 9.8923 79.2531 9.9803 79.2051 10.1163C79.1571 10.2523 79.1331 10.4723 79.1331 10.7763V13.6083H79.9251C80.2051 13.6083 80.4211 13.5443 80.5731 13.4163C80.7251 13.2803 80.8251 13.1243 80.8731 12.9483C80.9291 12.7643 80.9731 12.5363 81.0051 12.2643L81.0411 12.0243H81.3171C81.2931 12.3603 81.2811 12.7363 81.2811 13.1523V13.7283C81.2811 14.1363 81.3051 14.7043 81.3531 15.4323H81.0771C81.0691 15.3763 81.0451 15.1843 81.0051 14.8563C80.9651 14.5203 80.8531 14.2683 80.6691 14.1003C80.4931 13.9323 80.2451 13.8483 79.9251 13.8483H79.1331V16.7283C79.1331 17.0323 79.1571 17.2523 79.2051 17.3883C79.2531 17.5243 79.3411 17.6163 79.4691 17.6643C79.6051 17.7043 79.8171 17.7243 80.1051 17.7243H80.9811C81.4771 17.7243 81.8531 17.6603 82.1091 17.5323C82.3731 17.3963 82.5651 17.1843 82.6851 16.8963C82.8051 16.6003 82.8931 16.1683 82.9491 15.6003H83.2251C83.2011 15.8163 83.1891 16.1043 83.1891 16.4643Z" fill="#555248"/>
<path d="M88.6056 9.3723C88.9576 9.3723 89.2336 9.4123 89.4336 9.4923C89.6416 9.5643 89.8536 9.6723 90.0696 9.8163C90.2456 9.9283 90.3816 9.9843 90.4776 9.9843C90.5496 9.9843 90.6056 9.9443 90.6456 9.8643C90.6856 9.7763 90.7176 9.6403 90.7416 9.4563H91.0176C90.9776 9.9203 90.9576 10.7363 90.9576 11.9043H90.6816C90.6336 11.2563 90.4456 10.7123 90.1176 10.2723C89.7976 9.8243 89.3296 9.6003 88.7136 9.6003C88.2816 9.6003 87.9296 9.7323 87.6576 9.9963C87.3856 10.2523 87.2496 10.5843 87.2496 10.9923C87.2496 11.2963 87.3176 11.5603 87.4536 11.7843C87.5976 12.0083 87.7776 12.2003 87.9936 12.3603C88.2096 12.5203 88.5176 12.7243 88.9176 12.9723L89.2656 13.1883C89.7696 13.5003 90.1656 13.7763 90.4536 14.0163C90.7496 14.2483 90.9856 14.5163 91.1616 14.8203C91.3376 15.1243 91.4256 15.4803 91.4256 15.8883C91.4256 16.6163 91.1856 17.1803 90.7056 17.5803C90.2256 17.9723 89.6176 18.1683 88.8816 18.1683C88.4976 18.1683 88.1816 18.1283 87.9336 18.0483C87.6936 17.9683 87.4616 17.8603 87.2376 17.7243C87.0616 17.6123 86.9256 17.5563 86.8296 17.5563C86.7576 17.5563 86.7016 17.6003 86.6616 17.6883C86.6216 17.7683 86.5896 17.9003 86.5656 18.0843H86.2896C86.3216 17.6443 86.3376 16.6843 86.3376 15.2043H86.6136C86.6696 16.0123 86.8696 16.6683 87.2136 17.1723C87.5576 17.6763 88.0856 17.9283 88.7976 17.9283C89.2296 17.9283 89.5976 17.7963 89.9016 17.5323C90.2056 17.2603 90.3576 16.8603 90.3576 16.3323C90.3576 15.8843 90.2056 15.5043 89.9016 15.1923C89.6056 14.8803 89.1336 14.5283 88.4856 14.1363C88.0136 13.8483 87.6296 13.5923 87.3336 13.3683C87.0456 13.1443 86.8096 12.8763 86.6256 12.5643C86.4416 12.2443 86.3496 11.8723 86.3496 11.4483C86.3496 10.7763 86.5656 10.2643 86.9976 9.9123C87.4296 9.5523 87.9656 9.3723 88.6056 9.3723Z" fill="#555248"/>
<path d="M100.798 9.5043C100.742 10.0723 100.714 10.5843 100.714 11.0403C100.714 11.4403 100.726 11.7683 100.75 12.0243H100.474C100.41 11.4083 100.33 10.9523 100.234 10.6563C100.138 10.3523 99.9701 10.1323 99.7301 9.9963C99.4901 9.8523 99.1221 9.7803 98.6261 9.7803H97.9781V16.6083C97.9781 16.9443 98.0101 17.1883 98.0741 17.3403C98.1381 17.4923 98.2501 17.5963 98.4101 17.6523C98.5701 17.7083 98.8301 17.7443 99.1901 17.7603V18.0003C98.7741 17.9763 98.1861 17.9643 97.4261 17.9643C96.6261 17.9643 96.0341 17.9763 95.6501 18.0003V17.7603C96.0101 17.7443 96.2701 17.7083 96.4301 17.6523C96.5901 17.5963 96.7021 17.4923 96.7661 17.3403C96.8301 17.1883 96.8621 16.9443 96.8621 16.6083V9.7803H96.2141C95.7181 9.7803 95.3501 9.8523 95.1101 9.9963C94.8701 10.1323 94.7021 10.3523 94.6061 10.6563C94.5101 10.9523 94.4301 11.4083 94.3661 12.0243H94.0901C94.1141 11.7683 94.1261 11.4403 94.1261 11.0403C94.1261 10.5843 94.0981 10.0723 94.0421 9.5043C94.7061 9.5283 95.8341 9.5403 97.4261 9.5403C99.0101 9.5403 100.134 9.5283 100.798 9.5043Z" fill="#555248"/>
<path d="M21.6818 15.5344C21.1028 17.3757 19.8142 19.6577 17.2917 21.0103C15.7282 21.8487 14.0306 22.1833 12.3831 22.071L12.4257 3.94291C12.4778 3.93862 12.5301 3.93472 12.5825 3.93123C13.0681 3.92769 13.6665 3.94932 14.28 4.01902C14.5536 4.05012 14.8247 4.0902 15.0863 4.1403C15.6587 4.27589 16.2174 4.46652 16.754 4.70967C18.5103 5.50552 20.0281 6.86323 21.0099 8.69434C21.8203 10.2056 22.1598 11.8419 22.0803 13.437C22.0472 13.9746 21.9268 14.7156 21.6818 15.5344ZM11.4254 4.07488L11.3834 21.947C8.74393 21.4708 6.34092 19.838 4.97576 17.292C2.60158 12.8643 4.2663 7.35026 8.694 4.97607C9.26708 4.66878 10.2463 4.28822 11.4254 4.07488Z" stroke="url(#paint0_linear_1_126)"/>
<defs>
<linearGradient id="paint0_linear_1_126" x1="3.75599" y1="11.7235" x2="23.9646" y2="12.9922" gradientUnits="userSpaceOnUse">
<stop offset="0.288448" stop-color="#555248"/>
<stop offset="0.780176" stop-color="#1B1A17" stop-opacity="0"/>
</linearGradient>
</defs>
</svg>
